<mxfile host="app.diagrams.net" modified="2024-01-18T14:35:06.956Z" agent="Mozilla/5.0 (Windows NT 10.0; Win64; x64) AppleWebKit/537.36 (KHTML, like Gecko) Chrome/120.0.0.0 Safari/537.36" version="22.1.20" etag="lh1woyGmkEyWZZ3ZuBCI" type="github">
  <diagram name="Page-1" id="J8ZIkK9hHUTuCr1fiweA">
    <mxGraphModel>
      <root>
        <mxCell id="0" />
        <mxCell id="1" parent="0" />
      </root>
    </mxGraphModel>
  </diagram>
</mxfile>
